D:\school\WTK\thesis\model\3dpredictsim\Results\batch_windlass\Pog_s1_tmt_bCst_d00_k500_WL20_ig24_pas_GRF.mot
nRows=25
nColumns=19

name D:\school\WTK\thesis\model\3dpredictsim\Results\batch_windlass\Pog_s1_tmt_bCst_d00_k500_WL20_ig24_pas_GRF.mot
datacolumns 19
datarows 25
range 0.5403927580 0.7997812818
endheader
time 	ground_force_vx	ground_force_vy	ground_force_vz	ground_force_px	ground_force_py	ground_force_pz	1_ground_force_vx	1_ground_force_vy	1_ground_force_vz	1_ground_force_px	1_ground_force_py	1_ground_force_pz	ground_torque_x	ground_torque_y	ground_torque_z	1_ground_torque_x	1_ground_torque_y	1_ground_torque_z
        0.5403927580	       86.0429613315	      443.3884569806	        4.5621593436	        0.3475384989	        0.0000000000	        0.0328237503	      -91.3390008917	       75.6303601724	      -32.1137556038	        0.8161280973	        0.0000000000	       -0.0412393250	        0.0000000000	        0.0000000000	        0.0000000000	        0.0000000000	        0.0000000000	        0.0000000000	
        0.5512006131	       61.4254357080	      351.4611584599	       11.8905555589	        0.3531362239	        0.0000000000	        0.0306643387	     -131.1274346632	      151.3712557389	      -75.0814219620	        0.8251845358	        0.0000000000	       -0.0397566874	        0.0000000000	        0.0000000000	        0.0000000000	        0.0000000000	        0.0000000000	        0.0000000000	
        0.5620084683	       34.1291477696	      251.0817460569	       14.2384730118	        0.3624173167	        0.0000000000	        0.0263409261	      -56.5223928000	      319.2589415114	      -33.9356336750	        0.8361759180	        0.0000000000	       -0.0393835208	        0.0000000000	        0.0000000000	        0.0000000000	        0.0000000000	        0.0000000000	        0.0000000000	
        0.5728163234	       12.7979768919	      167.7618703135	       12.8957520626	        0.3764077406	        0.0000000000	        0.0186008537	      -50.9462251319	      537.0957406137	        1.0909153781	        0.8454799340	        0.0000000000	       -0.0412759919	        0.0000000000	        0.0000000000	        0.0000000000	        0.0000000000	        0.0000000000	        0.0000000000	
        0.5836241786	        0.0848994411	      138.1708266132	       11.3905790465	        0.3774919238	        0.0000000000	        0.0176880155	      -74.8614637967	      710.9311444531	       11.5285513210	        0.8520485184	        0.0000000000	       -0.0427181142	        0.0000000000	        0.0000000000	        0.0000000000	        0.0000000000	        0.0000000000	        0.0000000000	
        0.5944320337	       -1.9360145055	       99.5465978317	        9.7391333639	        0.3779938555	        0.0000000000	        0.0176502526	     -105.4556585279	      825.8947909864	       15.3433274454	        0.8588097685	        0.0000000000	       -0.0433716839	        0.0000000000	        0.0000000000	        0.0000000000	        0.0000000000	        0.0000000000	        0.0000000000	
        0.6052398889	      -10.3190412896	       55.7694709312	        7.4909276643	        0.3776648150	        0.0000000000	        0.0176684559	     -117.6802792456	      895.4803316894	       14.8132522759	        0.8653204858	        0.0000000000	       -0.0432127651	        0.0000000000	        0.0000000000	        0.0000000000	        0.0000000000	        0.0000000000	        0.0000000000	
        0.6160477441	       -7.0175176848	        9.0390399538	        1.0864657019	        0.0000000000	        0.0000000000	        0.0000000000	     -118.0261290344	      908.8935233618	       15.2236593226	        0.8725330397	        0.0000000000	       -0.0427347520	        0.0000000000	        0.0000000000	        0.0000000000	        0.0000000000	        0.0000000000	        0.0000000000	
        0.6268555992	        0.0030621845	       -0.0027276249	        0.0001245452	        0.0000000000	        0.0000000000	        0.0000000000	     -104.3567088989	      874.7517301747	       14.7664211276	        0.8767749468	        0.0000000000	       -0.0422732855	        0.0000000000	        0.0000000000	        0.0000000000	        0.0000000000	        0.0000000000	        0.0000000000	
        0.6376634544	        0.0000957567	       -0.0000718722	        0.0000067936	        0.0000000000	        0.0000000000	        0.0000000000	      -88.1770416088	      819.6844620624	       15.4030511629	        0.8803004469	        0.0000000000	       -0.0419611679	        0.0000000000	        0.0000000000	        0.0000000000	        0.0000000000	        0.0000000000	        0.0000000000	
        0.6484713095	        0.0001321634	       -0.0000879506	        0.0000104419	        0.0000000000	        0.0000000000	        0.0000000000	      -73.9882705280	      764.6536761623	       15.7645531960	        0.8836209012	        0.0000000000	       -0.0417705186	        0.0000000000	        0.0000000000	        0.0000000000	        0.0000000000	        0.0000000000	        0.0000000000	
        0.6592791647	        0.0023317926	       -0.0014182801	        0.0001939697	        0.0000000000	        0.0000000000	        0.0000000000	      -62.0237252914	      718.0560361779	       16.0760660303	        0.8870239446	        0.0000000000	       -0.0416719100	        0.0000000000	        0.0000000000	        0.0000000000	        0.0000000000	        0.0000000000	        0.0000000000	
        0.6700870199	       -0.0096155622	        0.0054448663	       -0.0008260998	        0.0000000000	        0.0000000000	        0.0000000000	      -51.8967561516	      680.4417857870	       16.6883294072	        0.8905901215	        0.0000000000	       -0.0416326007	        0.0000000000	        0.0000000000	        0.0000000000	        0.0000000000	        0.0000000000	        0.0000000000	
        0.6808948750	       -0.0405645934	        0.0216436832	       -0.0035772077	        0.0000000000	        0.0000000000	        0.0000000000	      -42.5201938565	      650.3944762544	       17.6707703977	        0.8948178285	        0.0000000000	       -0.0416253597	        0.0000000000	        0.0000000000	        0.0000000000	        0.0000000000	        0.0000000000	        0.0000000000	
        0.6917027302	       -0.0263605005	        0.0133482412	       -0.0023941132	        0.0000000000	        0.0000000000	        0.0000000000	      -35.6428381572	      627.3628138792	       18.8444136264	        0.8998234079	        0.0000000000	       -0.0416004989	        0.0000000000	        0.0000000000	        0.0000000000	        0.0000000000	        0.0000000000	        0.0000000000	
        0.7025105853	       -0.0182406602	        0.0088120031	       -0.0017072867	        0.0000000000	        0.0000000000	        0.0000000000	      -30.7993586888	      610.5261040526	       19.5099146186	        0.9051725311	        0.0000000000	       -0.0415472976	        0.0000000000	        0.0000000000	        0.0000000000	        0.0000000000	        0.0000000000	        0.0000000000	
        0.7133184405	       -0.0158594621	        0.0073447527	       -0.0015245319	        0.0000000000	        0.0000000000	        0.0000000000	      -26.6929830482	      598.7000205972	       20.0513629542	        0.9108326545	        0.0000000000	       -0.0414568360	        0.0000000000	        0.0000000000	        0.0000000000	        0.0000000000	        0.0000000000	        0.0000000000	
        0.7241262957	       -0.0178192566	        0.0079488410	       -0.0017430559	        0.0000000000	        0.0000000000	        0.0000000000	      -23.6231101410	      590.2474660655	       20.0831356755	        0.9166288377	        0.0000000000	       -0.0413309496	        0.0000000000	        0.0000000000	        0.0000000000	        0.0000000000	        0.0000000000	        0.0000000000	
        0.7349341508	       -0.0251298424	        0.0108475629	       -0.0024749838	        0.0000000000	        0.0000000000	        0.0000000000	      -21.7460301695	      584.8109929513	       19.6357485772	        0.9223962071	        0.0000000000	       -0.0411774600	        0.0000000000	        0.0000000000	        0.0000000000	        0.0000000000	        0.0000000000	        0.0000000000	
        0.7457420060	       -0.0420575721	        0.0176436924	       -0.0041360443	        0.0000000000	        0.0000000000	        0.0000000000	      -20.3953296376	      581.7279260780	       19.0907756333	        0.9280893117	        0.0000000000	       -0.0409981974	        0.0000000000	        0.0000000000	        0.0000000000	        0.0000000000	        0.0000000000	        0.0000000000	
        0.7565498611	       -0.0779514787	        0.0319070027	       -0.0076196441	        0.0000000000	        0.0000000000	        0.0000000000	      -19.2152545006	      579.6083311342	       18.6378048153	        0.9336222311	        0.0000000000	       -0.0407986875	        0.0000000000	        0.0000000000	        0.0000000000	        0.0000000000	        0.0000000000	        0.0000000000	
        0.7673577163	       -0.1492183729	        0.0598034495	       -0.0144608547	        0.0000000000	        0.0000000000	        0.0000000000	      -17.6475624647	      577.0783274666	       18.2866534188	        0.9389330845	        0.0000000000	       -0.0405904144	        0.0000000000	        0.0000000000	        0.0000000000	        0.0000000000	        0.0000000000	        0.0000000000	
        0.7781655715	       -0.2771985079	        0.1091342339	       -0.0265893068	        0.0000000000	        0.0000000000	        0.0000000000	      -15.6498383302	      573.8087584781	       18.0623008827	        0.9440906950	        0.0000000000	       -0.0403738725	        0.0000000000	        0.0000000000	        0.0000000000	        0.0000000000	        0.0000000000	        0.0000000000	
        0.7889734266	       -0.4735807715	        0.1837543126	       -0.0448682212	        0.0000000000	        0.0000000000	        0.0000000000	      -13.3911724953	      569.4036976837	       17.7307116158	        0.9490776721	        0.0000000000	       -0.0401535108	        0.0000000000	        0.0000000000	        0.0000000000	        0.0000000000	        0.0000000000	        0.0000000000	
        0.7997812818	       -0.7220361148	        0.2770069544	       -0.0673415286	        0.0000000000	        0.0000000000	        0.0000000000	      -10.8407280310	      564.2219355154	       17.4745833976	        0.9540024321	        0.0000000000	       -0.0399201402	        0.0000000000	        0.0000000000	        0.0000000000	        0.0000000000	        0.0000000000	        0.0000000000	
